<?xml version="1.0" encoding="UTF-8"?>
<!-- Created with Inkscape (http://www.inkscape.org/) -->
<svg width="210mm" height="297mm" version="1.1" viewBox="0 0 210 297" xmlns="http://www.w3.org/2000/svg" xmlns:cc="http://creativecommons.org/ns#" xmlns:dc="http://purl.org/dc/elements/1.1/" xmlns:rdf="http://www.w3.org/1999/02/22-rdf-syntax-ns#">
 <metadata>
  <rdf:RDF>
   <cc:Work rdf:about="">
    <dc:format>image/svg+xml</dc:format>
    <dc:type rdf:resource="http://purl.org/dc/dcmitype/StillImage"/>
    <dc:title/>
   </cc:Work>
  </rdf:RDF>
 </metadata>
 <path d="m79.877 121.13c-3.4282-2.3792-5.8841-5.6505-7.3002-9.7237-1.5945-4.5841-0.42588-13.11 1.1319-15.27 0.35563-0.49334 0.76395-0.74 1.2138-0.73441 0.57195 8e-3 1.0314 0.13698 1.4038 0.39474 1.0741 0.74558 1.0002 2.1869 0.91522 3.856-0.0614 1.2074-0.1314 2.576 0.23509 3.8129 0.17481 0.58993 1.179 0.84178 2.1481 1.0525 0.6953 0.1501 1.3519 0.29216 1.8233 0.61865 0.24547 0.17044 0.42468 0.38079 0.53284 0.62585 0.40512 0.91403-0.29496 1.9134-0.97189 2.8798-0.28219 0.40432-0.74878 1.0689-0.78152 1.3371 0.85496 1.0074 1.7742 1.856 2.7341 2.5214 2.2451 1.559 4.7868 2.1442 7.1521 1.6464 1.747-0.3668 3.2793-1.3239 3.9961-2.4966 3.7754-6.167-0.52606-14.584-4.8028-20.56-1.7167-2.4008-3.5822-4.3071-5.5428-5.6677-6.484-4.5006-12.673-2.2982-16.371-0.98188-1.1954 0.42507-2.0603 0.73241-2.6842 0.70367-0.50731-0.024-1.0533-0.25025-1.7191-0.71285-0.75237-0.52166-1.6093-1.3096-2.6012-2.222-1.3275-1.2206-2.9788-2.7401-4.905-4.0768-2.5257-1.7526-5.0107-2.8478-7.6023-3.3476-3.4617-0.66815-5.9575-0.47537-7.4207 0.57117-1.4512 1.0382-1.6919 2.7648-1.8851 4.1526-0.15288 1.0892-0.27222 1.9502-1.0118 2.2739-0.65379 0.28618-1.3527-0.11224-1.8209-0.43745-0.09066-0.0631-0.1856-0.1329-0.28698-0.20995-2.9608-2.2743-10.109-16.506 1.5163-33.799 1.3714-2.0392 3.4122-5.0762 3.4509-5.9683-0.13652-8e-4 -0.47018 0.0251-1.1531 0.25585-2.5964 0.8757-4.3238 0.97908-5.2821 0.31452-0.3724-0.25864-0.81064-0.75916-0.78351-1.672 0.08146-2.7516 4.879-8.0458 10.268-11.33 8.4266-5.1365 18.88-6.7031 25.025-5.985 2.3098 0.26942 3.4445 0.53803 4.0484 0.95752 0.42628 0.29536 0.55879 0.65179 0.59512 0.89925 0.10454 0.70447-0.38157 1.3155-1.0529 2.1629-0.28419 0.35762-0.60589 0.76315-0.91881 1.2222-0.89926 1.3175-1.0074 2.5357 1.3838 4.1953 1.3938 0.9675 3.488 1.9606 6.4009 3.035 0.58354 0.21474 1.0605 0.45262 1.4572 0.72842 1.8264 1.2677 1.4796 2.9528 1.1727 4.44-0.33528 1.6285-0.62505 3.0354 1.2389 4.4963 0.48056 0.37639 0.95833 0.72962 1.4197 1.0505 8.2661 5.7376 12.336 1.6688 17.489-3.4829 2.8802-2.8798 6.1459-6.1431 10.55-7.9308 5.2267-2.1218 12.402-0.90085 15.102-0.44184 0.45302 0.07743 0.84417 0.14369 0.98826 0.15327 1.3487 0.0898 2.6299-2.3262 3.4777-3.9247 0.6909-1.3012 1.0721-2.018 1.6887-2.1685 0.43466-0.10498 0.86453 0.11017 1.0992 0.59312 0.90883 1.8676 0.63702 7.4263-0.51009 10.435-0.72363 1.8919-0.32928 2.8355-0.0415 3.5248 0.0747 0.17841 0.14648 0.34725 0.19636 0.52127 0.38278 1.3415 0.67215 4.1159-0.6857 5.999-0.9767 1.3587-1.6065 3.5276-1.6049 5.5256 3e-3 1.9051-1.0741 3.7499-2.679 4.5908-1.3108 0.68612-2.772 0.58714-4.0093-0.2714l-0.0419-0.0299c-1.8668-1.3279-2.3302-2.9265-2.7792-4.4719-0.24627-0.85335-0.5037-1.7362-0.99704-2.6534-0.0563-0.10333-0.16045-0.21154-0.29616-0.30573-0.35322-0.24588-1.0214-0.45862-1.7386-0.25146-0.68253 0.19437-1.2282 0.72882-1.579 1.5462-1.2425 2.887-0.13094 5.5596 3.3016 7.9436 0 0 1e-3 4.1e-4 2e-3 1e-3 4.6942 3.2577 12.353 4.9149 14.793 4.6946 4.4128-0.39674 6.0345-1.7506 7.2196-2.7397 0.82223-0.68651 1.5997-1.3347 2.8874-1.09 7.8889 1.5016 10.701 0.33288 11.672-0.49652 0.53325-0.45342 0.78111-1.023 0.75916-1.7386-0.016-0.55519-0.0682-1.0705-0.11571-1.5263-0.11857-1.1667-0.21314-2.0899 0.49892-2.5864 0.7412-0.51767 1.8372-0.25224 4.693 1.136 1.1874 0.57794 2.4503 1.3291 3.7523 2.2336 5.8238 4.0412 11.096 10.132 14.105 16.291 2.9324 6.0026 4.6455 14.432 2.4611 16.307-0.40711 0.34924-1.3024 0.7851-2.7361-0.20954-0.69967-0.48536-1.5039-1.2908-2.3864-2.3904-0.21913-0.27261-0.41989-0.47418-0.59391-0.59551-0.13125-0.091-0.20876-0.10771-0.22592-0.10651-0.35682 0.12099-1.0054 2.0081-0.95633 6.0046 0.25905 20.847-13.275 28.97-16.933 29.284-0.85374 0.073-1.4054-0.0121-1.7869-0.27739l-8e-4 -4e-4c-0.94036-0.65258-0.42229-1.7869 0.0778-2.8842 0.9232-2.022 2.0715-4.5394-1.4393-6.9765-0.98507-0.68372-2.2898-1.3219-3.8768-1.8975-6.5486-2.3736-12.011-1.7853-16.4-1.3132-2.9544 0.31733-5.2881 0.56838-7.1054-0.18878-0.19039-0.0798-0.36202-0.17443-0.52525-0.28737-0.56239-0.38996-0.9304-0.94476-1.4864-1.7838-1.0166-1.5335-2.7181-4.0979-7.4722-8.656-0.44383-0.42588-0.88328-0.79069-1.3052-1.084-0.926-0.64181-2.2711-1.2812-3.4214-0.67813-1.2321 0.64739-2.0232 2.6223-2.0168 5.0323 0.0136 4.9241 0.04 14.092-8.8504 19.507-7.0731 4.3078-17.642 3.9239-24.583-0.89407z" fill="none" stroke="#000" stroke-miterlimit="10" stroke-width=".39914"/>
</svg>
