<?xml version="1.0" encoding="UTF-8" standalone="no"?>
<!-- Created with Inkscape (http://www.inkscape.org/) -->

<svg
   xmlns:dc="http://purl.org/dc/elements/1.1/"
   xmlns:cc="http://creativecommons.org/ns#"
   xmlns:rdf="http://www.w3.org/1999/02/22-rdf-syntax-ns#"
   xmlns:svg="http://www.w3.org/2000/svg"
   xmlns="http://www.w3.org/2000/svg"
   xmlns:sodipodi="http://sodipodi.sourceforge.net/DTD/sodipodi-0.dtd"
   xmlns:inkscape="http://www.inkscape.org/namespaces/inkscape"
   width="210mm"
   height="297mm"
   version="1.1"
   viewBox="0 0 210 297"
   id="svg819"
   sodipodi:docname="drak3.svg"
   inkscape:version="0.92.4 (5da689c313, 2019-01-14)">
  <defs
     id="defs823" />
  <sodipodi:namedview
     pagecolor="#ffffff"
     bordercolor="#666666"
     borderopacity="1"
     objecttolerance="10"
     gridtolerance="10"
     guidetolerance="10"
     inkscape:pageopacity="0"
     inkscape:pageshadow="2"
     inkscape:window-width="1920"
     inkscape:window-height="1016"
     id="namedview821"
     showgrid="false"
     inkscape:zoom="0.75900673"
     inkscape:cx="315.16469"
     inkscape:cy="561.25984"
     inkscape:window-x="0"
     inkscape:window-y="27"
     inkscape:window-maximized="1"
     inkscape:current-layer="svg819" />
  <metadata
     id="metadata815">
    <rdf:RDF>
      <cc:Work
         rdf:about="">
        <dc:format>image/svg+xml</dc:format>
        <dc:type
           rdf:resource="http://purl.org/dc/dcmitype/StillImage" />
        <dc:title />
      </cc:Work>
    </rdf:RDF>
  </metadata>
  <path
     d="m 28.056792,58.867582 c -0.493696,-1.472616 -0.390851,-3.067982 0.273573,-4.265666 0.627482,-1.133159 1.74217,-1.919351 3.221748,-2.272732 3.987564,-0.950978 7.960601,2.953269 11.154992,6.08804 1.247965,1.227513 2.426499,2.386689 3.184391,2.781955 3.008172,1.566461 5.463727,1.907843 7.841361,2.235942 1.887843,0.262064 3.670974,0.509676 5.546931,1.341829 2.832328,1.256455 5.652778,-0.224651 8.640948,-1.795602 0.79172,-0.415831 1.61089,-0.846133 2.42556,-1.218532 2.34027,-1.068766 5.30581,-9.24847 3.09458,-15.840828 -0.77376,-2.304241 -2.09066,-4.15284 -3.91625,-5.495047 -1.71522,-1.262964 -3.49381,-1.422203 -5.37637,-1.591441 -2.33575,-0.208651 -4.747341,-0.426302 -6.963661,-2.745542 -2.064062,-2.158964 -2.329711,-5.167702 -0.739308,-7.749478 1.301906,-2.111607 3.565318,-3.588147 6.051819,-3.944547 0.34592,-0.05 0.72532,-0.10226 1.12966,-0.157729 3.36099,-0.462263 8.98792,-1.237494 10.81595,-3.004588 2.7146,-2.621208 7.26516,-2.802898 9.52412,-2.496874 0.28405,0.03792 0.57209,0.111882 0.8781,0.190709 1.24947,0.320968 2.96176,0.760269 6.00276,-0.937997 4.64508,-2.592341 13.647904,-4.36585 16.901164,-3.328159 0.63446,0.202161 0.86309,0.632464 0.94347,0.872076 0.39387,1.17461 -0.82118,2.384614 -3.60815,5.01035 -2.77403,2.614793 -7.004234,6.581415 -6.039744,8.730945 1.651324,3.680597 2.802524,6.532361 3.620604,8.973576 2.83044,8.434355 1.78013,12.53531 -0.3085,20.706657 l -0.90852,3.669087 c 0.78523,2.844972 2.75705,4.410942 5.21656,4.205102 2.08105,-0.175653 3.7989,-1.626854 4.08643,-3.45287 0.15282,-0.96694 -0.22463,-2.368577 -0.62597,-3.851721 -0.69939,-2.5897 -1.49111,-5.523536 0.23561,-7.602126 1.55248,-1.871957 4.73074,-2.547437 9.99825,-2.128022 18.55939,1.477597 37.27009,13.948457 41.68122,19.942535 1.5425,2.09463 2.42311,3.5557 2.77253,4.59905 0.29302,0.8716 0.23263,1.56797 -0.18075,2.06708 -0.71084,0.86061 -2.04123,0.68041 -3.44985,0.49172 -0.97343,-0.13132 -2.27481,-0.30601 -2.7895,0.023 0.28104,0.62 1.23698,1.72821 2.33178,2.99723 3.46249,4.01247 9.90599,11.48045 14.04978,23.834826 0.56608,1.68626 1.07776,3.43343 1.52253,5.1926 4.80319,18.99541 0.29703,27.92333 -3.67097,29.08932 -1.68829,0.49518 -3.20288,-0.39936 -3.73607,-2.25443 -0.033,-0.12132 -0.0743,-0.2486 -0.11886,-0.38238 -1.12467,-3.35363 -5.08884,-9.56601 -8.98339,-10.00787 -1.94331,-0.22115 -3.76644,1.03433 -5.41863,3.73304 -1.863,3.04251 -3.67664,3.56626 -4.87055,3.46891 -1.91199,-0.15528 -3.55116,-1.87447 -4.87111,-5.11374 l -0.11377,-0.27756 c -2.71516,-6.76763 -4.40735,-8.0704 -5.17374,-8.24455 -0.18263,-0.0415 -0.41283,-0.0434 -0.74428,0.26007 -0.4378,0.40085 -0.84963,0.83715 -1.24748,1.25947 -1.23451,1.31138 -2.40159,2.55084 -4.0385,2.32726 -1.72123,-0.23663 -3.38156,-2.10765 -5.5526,-6.25539 -0.85313,-1.61588 -2.6612,-3.72795 -3.27363,-3.59117 -0.008,10e-4 -0.71085,0.30201 -0.86409,3.54683 -0.10736,2.25594 0.29651,4.76678 1.20204,7.46534 3.39702,10.13051 13.22169,21.01042 20.37271,25.28004 1.7407,1.03783 3.52381,0.3724 5.0977,-0.21514 1.23101,-0.45926 2.39405,-0.89456 3.38401,-0.35942 0.77225,0.41733 1.28841,1.00387 1.53501,1.73819 0.26657,0.79321 0.1832,1.63784 0.10282,2.45461 -0.0794,0.81269 -0.16074,1.65133 0.0992,2.42952 0.2576,0.76525 0.83765,1.43717 1.77365,2.05124 1.93538,1.26894 4.44282,1.58693 6.45802,1.84352 2.24481,0.28453 4.18227,0.53064 4.69885,2.07217 0.18018,0.53664 0.14528,1.14265 -0.10584,1.85151 -0.54311,1.52903 -3.1993,2.90289 -6.76462,3.50325 -5.97974,1.00388 -27.50447,1.76515 -53.41279,-30.60812 -0.49968,-0.6255 -1.43917,-1.62487 -2.1235,-1.29642 -1.70673,0.81919 -2.66969,7.06913 -2.22386,9.04886 0.46624,2.08368 -1.74868,3.74191 -4.092844,5.49655 -1.56997,1.17511 -3.34703,2.5065 -3.77984,3.69305 -0.88557,2.41764 -0.52166,7.61326 0.81119,11.58422 0.3095,0.926 0.66193,1.76464 1.05029,2.49537 1.16961,2.19349 0.5576,4.21529 -1.45912,5.0977 -3.1044,1.35979 -8.34493,-0.37291 -10.90029,-5.03242 -0.98392,-1.79259 -1.70824,-3.39797 -2.21443,-4.90658 -1.32336,-3.95116 -1.06926,-6.91782 -0.71733,-11.02613 0.28703,-3.33118 0.64346,-7.47836 0.2471,-13.61338 -0.14433,-2.22632 -0.22814,-4.30548 -0.30251,-6.13955 -0.19569,-4.84017 -0.35144,-8.6634 -1.41871,-11.84628 -0.63149,-1.88147 -1.53901,-3.45042 -2.85441,-4.93941 -5.05223,-5.70919 -11.53724,-14.763706 -13.60639,-20.299126 -1.63288,-4.36151 -3.536833,-5.72768 -8.141918,-9.02791 -0.806192,-0.57707 -1.686777,-1.20806 -2.653282,-1.92048 -1.491087,-1.09422 -3.192882,-2.02916 -4.99337,-3.02006 -5.944273,-3.27081 -13.343389,-7.34006 -20.325541,-20.767034 -0.116787,-0.21716 -0.220141,-0.460753 -0.306006,-0.719837 z"
     stroke-miterlimit="10"
     id="path817"
     inkscape:connector-curvature="0"
     style="fill:none;stroke:#000000;stroke-width:0.4991861;stroke-miterlimit:10" />
</svg>
