<?xml version="1.0" encoding="UTF-8"?>
<!-- Created with Inkscape (http://www.inkscape.org/) -->
<svg width="210mm" height="297mm" version="1.1" viewBox="0 0 210 297" xmlns="http://www.w3.org/2000/svg" xmlns:cc="http://creativecommons.org/ns#" xmlns:dc="http://purl.org/dc/elements/1.1/" xmlns:rdf="http://www.w3.org/1999/02/22-rdf-syntax-ns#">
 <metadata>
  <rdf:RDF>
   <cc:Work rdf:about="">
    <dc:format>image/svg+xml</dc:format>
    <dc:type rdf:resource="http://purl.org/dc/dcmitype/StillImage"/>
    <dc:title/>
   </cc:Work>
  </rdf:RDF>
 </metadata>
 <path d="m122.26 113.42c-6.5032 0-12.639-2.1826-16.306-3.4862-1.6174-0.57547-2.8951-1.0298-3.4314-1.0298-0.0619 0-0.0863 7e-3 -0.0871 7e-3 -0.96864 0.29422-1.991 1.3901-2.8935 2.3577-1.0562 1.1322-1.969 2.11-2.9292 2.11l-7.1908-0.0923c-0.32597-5e-3 -0.644-6e-3 -0.95356-6e-3l-1.3245 3e-3c-2.1 0-3.6423-0.0669-4.3627-0.9345-0.3638-0.43842-0.47281-1.0157-0.33284-1.7648 0.27887-1.488 2.0852-1.9076 3.8322-2.3138 1.161-0.26961 2.3564-0.54716 2.8607-1.0948-0.99007-0.44014-4.6191-1.1564-6.8871-1.1564-0.78475 0-1.0602 0.0926-1.1419 0.13202-0.54636 0.26379-1.7716 1.8772-2.7562 3.1729-1.9161 2.5225-2.8361 3.6317-3.6042 3.6719-0.51858 0.0275-1.4666 0.0328-2.1701 0.0328-2.3514 0-5.8526-0.0627-7.3181-0.15584-0.87471-0.0548-1.5163-0.3564-1.9066-0.89694-0.54372-0.75354-0.43471-1.755-0.24738-2.463 0.29104-1.1054 1.2819-1.3592 3.4533-1.9148 0.70035-0.17939 1.5722-0.40243 2.5985-0.69876 1.0755-0.3101 1.3166-1.5827 1.6206-3.6333 0.0828-0.55933 0.16828-1.138 0.28681-1.7235 0.26644-1.3147-1.1123-2.5307-2.445-3.7063-0.93107-0.82127-1.8944-1.6706-2.3455-2.6035-1.1803-2.4366 0.56726-11.428 1.2271-13.498 0.52362-1.6462 1.837-3.215 2.7961-4.3606 0.38444-0.45905 0.71623-0.85487 0.85064-1.0904 0.45984-0.80142 1.0218-3.2115-0.14235-6.5947-0.43048-1.2499-1.0393-1.8833-1.8098-1.8833-0.84984 0-1.7685 0.70908-2.2402 1.1322-0.86571 0.77655-1.4608 1.5962-2.0365 2.3897-1.0411 1.4346-2.0243 2.79-4.3175 3.4316-1.6939 0.4744-3.3081-0.11668-4.3169-1.5542-0.97472-1.3885-1.212-3.2697-0.61965-4.9107 0.75644-2.0942 0.91202-4.612 0.39714-6.4135-0.66093-2.3114 0.60775-4.9353 1.4616-6.1211 0.10424-0.1442 0.23177-0.2839 0.3675-0.4318 0.58103-0.63421 1.3772-1.5042 1.333-3.8206-0.0661-3.4335 1.6507-9.0924 3.2229-10.623 0.18918-0.18442 0.38973-0.27808 0.59611-0.27808 0.77523 0 0.9234 1.0319 1.1681 2.7419 0.28918 2.0196 0.72654 5.071 2.3193 5.5271 0.23575 0.0675 0.62839 0.0746 1.1253 0.0844 1.7468 0.0323 4.6699 0.0868 9.252 2.5437 4.8855 2.6183 6.6347 7.0665 7.7922 10.011 0.59452 1.5116 1.1078 2.817 1.7298 2.9864 0.26511 0.0717 0.54504 0.10742 0.83185 0.10742 2.2654 0 4.6313-2.2553 4.908-4.0341 0.15213-0.97711-0.32465-1.6492-1.4174-1.9976-2.3326-0.74269-3.7592-2.0791-3.815-3.5745-0.0828-2.1823 2.5741-4.3783 7.8962-6.5262 4.9948-2.0151 9.7547-3.0369 14.146-3.0369 3.147 0 6.1246 0.50959 9.1019 1.5581 2.9308 1.0324 3.5306 1.638 3.5481 2.281 0.0214 0.75565-0.86572 1.1242-1.8928 1.5505-0.771 0.32041-1.8206 0.75644-1.8923 1.2187 0.19156 0.30744 1.6156 0.87497 2.8744 1.3758 3.7156 1.4798 9.9338 3.9558 14.751 9.5612 4.2188 4.9062 6.241 12.166 5.4912 13.799-0.17569 0.38285-0.526 0.57388-0.90805 0.49054-0.62998-0.13494-1.3864-0.6403-2.3445-1.2806-1.5523-1.0369-3.484-2.3273-5.733-2.6532-3.0483-0.43947-4.9382 1.0806-5.8338 4.717-0.44079 1.791-1.3891 2.6988-2.8173 2.6988-0.56303 0-1.1044-0.13441-1.5817-0.25294-0.21246-0.0521-0.41248-0.10213-0.57944-0.13017-0.9525-0.15981-2.7652 0.84851-3.3502 3.3327-0.50827 2.1566-1.901 2.609-2.9789 2.609-0.46938 0-0.88001-0.0844-1.1475-0.1479-0.10345-0.0243-0.2548-0.0733-0.44027-0.13494-0.51938-0.17198-1.3039-0.4318-2.0664-0.4318-0.62336 0-1.0941 0.17331-1.4388 0.53023-0.53869 0.55827-0.78687 1.5806-0.73554 3.0379 0.43286 12.361 12.668 13.695 17.908 13.695 2.961 0 5.43-0.42492 6.3397-0.84455 1.7047-0.78872 1.5256-1.814 1.3354-2.9001-0.12251-0.69824-0.24898-1.4206 0.32914-1.8852 0.35242-0.28205 0.74215-0.42545 1.1597-0.42545 0.4908 0 0.9435 0.19156 1.3809 0.3765 0.4109 0.17383 0.7993 0.33787 1.1885 0.33787 0.35454 0 0.9136-0.12038 1.6785-1.1573 1.0893-1.4782 1.9838-2.1971 2.7342-2.1971 0.29554 0 0.55615 0.11271 0.75512 0.32596 0.30242 0.32412 0.4355 0.86625 0.3855 1.5682-0.18654 2.5868-1.3198 7.6017-6.8083 12.132-4.2013 3.4684-9.2935 5.2263-15.136 5.2263z" fill="none" stroke="#000" stroke-miterlimit="10" stroke-width=".26458"/>
</svg>
