<?xml version="1.0" encoding="UTF-8"?>
<!-- Created with Inkscape (http://www.inkscape.org/) -->
<svg width="210mm" height="297mm" version="1.1" viewBox="0 0 210 297" xmlns="http://www.w3.org/2000/svg" xmlns:cc="http://creativecommons.org/ns#" xmlns:dc="http://purl.org/dc/elements/1.1/" xmlns:rdf="http://www.w3.org/1999/02/22-rdf-syntax-ns#">
 <metadata>
  <rdf:RDF>
   <cc:Work rdf:about="">
    <dc:format>image/svg+xml</dc:format>
    <dc:type rdf:resource="http://purl.org/dc/dcmitype/StillImage"/>
    <dc:title/>
   </cc:Work>
  </rdf:RDF>
 </metadata>
 <path d="m123.89 123.95c-4.591 1.3396-8.3685-0.26141-11.229-4.7588-2.3304-3.6655-4.9067-5.0255-7.8751-4.1595-2.9374 0.85672-6.2055 3.883-9.9901 9.248-0.70961 1.0083-1.6367 1.6841-2.7546 2.0103h-5.3e-4c-3.6108 1.0528-7.9764-1.7703-9.6853-3.0329-3.6946-2.73-4.6961-6.2899-5.1557-9.0863-0.29925-1.8185 0.71305-6.3556 1.5269-10.003 0.36009-1.6148 0.67124-3.0099 0.78475-3.8021 0.21643-1.5097-0.18256-3.0731-0.60563-4.7276-0.26353-1.0319-0.53631-2.0997-0.6739-3.2105-0.20531-1.6616 0.49028-3.543 1.1628-5.3623 0.55457-1.4994 1.0771-2.9157 1.0647-4.0764-0.14208-12.936 1.6772-21.917 4.9927-24.641 0.61727-0.5072 1.2152-0.58552 1.723-0.26246 0.98663 0.62918 1.3795 2.6226 1.9394 5.8232 0.51488 2.9469 1.0986 6.287 2.4051 7.2834 0.46832 0.35772 0.77656 0.32517 0.96679 0.26908 5.3e-4 8e-4 5.3e-4 8e-4 1e-3 5.3e-4 1.4211-0.41513 2.8133-4.3066 4.2884-8.4264 2.4741-6.9136 5.5544-15.518 11.451-17.265 0.69109-0.20188 1.2602-0.12832 1.7066 0.21511 1.1327 0.87339 1.1271 3.3094 1.1194 6.3934-0.0116 4.8308-0.0257 10.843 4.1045 13.182 1.0401 0.58949 3.4602 1.5518 6.2624 2.6662 4.2392 1.6865 9.5144 3.7843 12.681 5.6552l0.0283 0.0167c3.8616 2.2807 11.05 6.5257 12.366 18.394 0.92048 8.3026-3.5915 17.643-12.07 24.988-3.0956 2.6808-6.7683 5.5711-10.534 6.6691z" fill="none" stroke="#000" stroke-miterlimit="10" stroke-width=".26458"/>
</svg>
